<?xml version="1.0" encoding="UTF-8" standalone="no"?>
<!-- Created with Inkscape (http://www.inkscape.org/) -->

<svg
   width="210mm"
   height="297mm"
   viewBox="0 0 210 297"
   version="1.1"
   id="svg1"
   xml:space="preserve"
   inkscape:version="1.3.2 (091e20e, 2023-11-25, custom)"
   sodipodi:docname="logo- la-petite-raw.svg"
   xmlns:inkscape="http://www.inkscape.org/namespaces/inkscape"
   xmlns:sodipodi="http://sodipodi.sourceforge.net/DTD/sodipodi-0.dtd"
   xmlns="http://www.w3.org/2000/svg"
   xmlns:svg="http://www.w3.org/2000/svg"><sodipodi:namedview
     id="namedview1"
     pagecolor="#ffffff"
     bordercolor="#000000"
     borderopacity="0.25"
     inkscape:showpageshadow="2"
     inkscape:pageopacity="0.0"
     inkscape:pagecheckerboard="0"
     inkscape:deskcolor="#d1d1d1"
     inkscape:document-units="mm"
     inkscape:zoom="1.1842731"
     inkscape:cx="444.9987"
     inkscape:cy="632.87766"
     inkscape:window-width="1920"
     inkscape:window-height="1017"
     inkscape:window-x="-8"
     inkscape:window-y="-8"
     inkscape:window-maximized="1"
     inkscape:current-layer="layer1" /><defs
     id="defs1"><inkscape:path-effect
       effect="fillet_chamfer"
       id="path-effect26"
       is_visible="true"
       lpeversion="1"
       nodesatellites_param="F,0,0,1,0,0,0,1 @ F,0,0,1,0,0,0,1 @ F,0,0,1,0,0,0,1 @ F,0,0,1,0,0,0,1 @ F,0,0,1,0,0,0,1 @ F,0,0,1,0,0,0,1 @ F,0,0,1,0,0,0,1 @ F,0,0,1,0,0,0,1 @ F,0,0,1,0,0,0,1 @ F,0,0,1,0,0,0,1 @ F,0,0,1,0,0,0,1 @ F,0,0,1,0,0,0,1 @ F,0,0,1,0,0,0,1 @ F,0,0,1,0,0,0,1 @ F,0,0,1,0,0,0,1 @ F,0,0,1,0,0,0,1 @ F,0,0,1,0,0,0,1 @ F,0,0,1,0,0,0,1 @ F,0,0,1,0,0,0,1 @ F,0,0,1,0,0,0,1 @ F,0,0,1,0,0,0,1"
       radius="0"
       unit="px"
       method="auto"
       mode="F"
       chamfer_steps="1"
       flexible="false"
       use_knot_distance="true"
       apply_no_radius="true"
       apply_with_radius="true"
       only_selected="false"
       hide_knots="false" /><inkscape:path-effect
       effect="fillet_chamfer"
       id="path-effect24"
       is_visible="true"
       lpeversion="1"
       nodesatellites_param="F,0,0,1,0,0,0,1 @ F,0,0,1,0,0,0,1 @ F,0,0,1,0,0,0,1 @ F,0,0,1,0,0,0,1 @ F,0,0,1,0,0,0,1 @ F,0,0,1,0,nan,0,1 @ F,0,0,1,0,0,0,1 @ F,0,0,1,0,0,0,1 @ F,0,0,1,0,0,0,1 @ F,0,0,1,0,0,0,1 @ F,0,0,1,0,0,0,1 @ F,0,0,1,0,0,0,1 @ F,0,0,1,0,0,0,1 @ F,0,0,1,0,0,0,1 @ F,0,0,1,0,0,0,1 @ F,0,0,1,0,0,0,1 @ F,0,0,1,0,0,0,1 @ F,0,0,1,0,0,0,1 @ F,0,0,1,0,0,0,1 @ F,0,0,1,0,0,0,1 @ F,0,0,1,0,0,0,1"
       radius="0"
       unit="px"
       method="auto"
       mode="F"
       chamfer_steps="1"
       flexible="false"
       use_knot_distance="true"
       apply_no_radius="true"
       apply_with_radius="true"
       only_selected="false"
       hide_knots="false" /><inkscape:path-effect
       effect="fillet_chamfer"
       id="path-effect20"
       is_visible="true"
       lpeversion="1"
       nodesatellites_param="F,0,0,1,0,0,0,1 @ F,0,0,1,0,0,0,1 @ F,0,0,1,0,0,0,1 @ F,0,0,1,0,0,0,1 @ F,0,0,1,0,0,0,1 @ F,0,0,1,0,0,0,1 @ F,0,0,1,0,0,0,1 @ F,0,0,1,0,0,0,1 @ F,0,0,1,0,0,0,1 @ F,0,0,1,0,0,0,1 @ F,0,0,1,0,0,0,1 @ F,0,0,1,0,0,0,1 @ F,0,0,1,0,0,0,1 @ F,0,0,1,0,0,0,1 @ F,0,0,1,0,0,0,1 @ F,0,0,1,0,0,0,1 @ F,0,0,1,0,0,0,1 @ F,0,0,1,0,0,0,1 @ F,0,0,1,0,0,0,1 @ F,0,0,1,0,0,0,1 @ F,0,0,1,0,0,0,1"
       radius="0"
       unit="px"
       method="auto"
       mode="F"
       chamfer_steps="1"
       flexible="false"
       use_knot_distance="true"
       apply_no_radius="true"
       apply_with_radius="true"
       only_selected="false"
       hide_knots="false" /><inkscape:path-effect
       effect="fillet_chamfer"
       id="path-effect19"
       is_visible="true"
       lpeversion="1"
       nodesatellites_param="F,0,0,1,0,0,0,1 @ F,0,0,1,0,0,0,1 @ F,0,0,1,0,0,0,1 @ F,0,0,1,0,0,0,1 @ F,0,0,1,0,0,0,1 @ F,0,0,1,0,nan,0,1 @ F,0,0,1,0,0,0,1 @ F,0,0,1,0,0,0,1 @ F,0,0,1,0,0,0,1 @ F,0,0,1,0,0,0,1 @ F,0,0,1,0,0,0,1 @ F,0,0,1,0,0,0,1 @ F,0,0,1,0,0,0,1 @ F,0,0,1,0,0,0,1 @ F,0,0,1,0,0,0,1 @ F,0,0,1,0,0,0,1 @ F,0,0,1,0,0,0,1 @ F,0,0,1,0,0,0,1 @ F,0,0,1,0,0,0,1 @ F,0,0,1,0,0,0,1 @ F,0,0,1,0,0,0,1"
       radius="0"
       unit="px"
       method="auto"
       mode="F"
       chamfer_steps="1"
       flexible="false"
       use_knot_distance="true"
       apply_no_radius="true"
       apply_with_radius="true"
       only_selected="false"
       hide_knots="false" /><inkscape:path-effect
       effect="fillet_chamfer"
       id="path-effect18"
       is_visible="true"
       lpeversion="1"
       nodesatellites_param="F,0,0,1,0,0,0,1 @ F,0,0,1,0,0,0,1 @ F,0,0,1,0,0,0,1 @ F,0,0,1,0,0,0,1 @ F,0,0,1,0,0,0,1 @ F,0,0,1,0,0,0,1 @ F,0,0,1,0,0,0,1 @ F,0,0,1,0,0,0,1 @ F,0,0,1,0,0,0,1 @ F,0,0,1,0,0,0,1 @ F,0,0,1,0,0,0,1 @ F,0,0,1,0,0,0,1 @ F,0,0,1,0,0,0,1 @ F,0,0,1,0,0,0,1 @ F,0,0,1,0,0.24420552,0,1 @ F,0,0,1,0,0,0,1 @ F,0,0,1,0,0,0,1 @ F,0,0,1,0,0,0,1 @ F,0,0,1,0,0,0,1 @ F,0,0,1,0,0,0,1"
       radius="0"
       unit="px"
       method="auto"
       mode="F"
       chamfer_steps="1"
       flexible="false"
       use_knot_distance="true"
       apply_no_radius="true"
       apply_with_radius="true"
       only_selected="false"
       hide_knots="false" /><inkscape:path-effect
       effect="fillet_chamfer"
       id="path-effect17"
       is_visible="true"
       lpeversion="1"
       nodesatellites_param="F,0,0,1,0,0,0,1 @ F,0,0,1,0,0,0,1 @ F,0,0,1,0,0,0,1 @ F,0,0,1,0,0,0,1 @ F,0,0,1,0,0,0,1 @ F,0,0,1,0,0,0,1 @ F,0,0,1,0,0.31431358,0,1 @ F,0,0,1,0,0.36104348,0,1 @ F,0,0,1,0,0,0,1 @ F,0,0,1,0,0,0,1 @ F,0,0,1,0,0,0,1 @ F,0,0,1,0,0,0,1"
       radius="0"
       unit="px"
       method="auto"
       mode="F"
       chamfer_steps="1"
       flexible="false"
       use_knot_distance="true"
       apply_no_radius="true"
       apply_with_radius="true"
       only_selected="false"
       hide_knots="false" /></defs><g
     inkscape:label="Layer 1"
     inkscape:groupmode="layer"
     id="layer1"><path
       id="path295"
       style="opacity:1;fill:#544844;fill-opacity:1"
       d="m 106.09566,116.82318 c -2.45617,-0.0272 -4.78892,0.13157 -6.831106,0.50023 -3.91267,0.70632 -3.98267,0.76831 -2.52801,2.25051 3.752896,3.82391 13.196306,5.66472 21.895816,4.26795 4.01545,-0.64471 6.45546,-0.50271 7.96334,0.46406 4.38326,2.81027 -3.4855,4.78454 -10.92698,2.74143 -1.30969,-0.35958 -3.33375,-0.91785 -4.49792,-1.24075 -3.33685,-0.92552 -5.96372,-0.64542 -11.496966,1.22732 -4.73346,1.60206 -5.6635,1.68712 -7.11843,0.65112 -1.01364,-0.72182 -1.36064,-0.70173 -1.36064,0.0775 0,0.34824 -0.1786,0.70168 -0.39688,0.78548 -0.8855,0.3398 -0.20656,3.08138 1.10123,4.44676 0.85514,0.8928 0.67569,1.17157 -0.89969,1.39888 -2.32308,0.3352 -2.38142,0.37613 -3.93102,2.75074 -4.0112,6.14671 -3.92928,6.06137 -5.92781,6.1743 -2.76693,0.15636 -1.61456,2.52458 1.37925,2.83445 1.12102,0.11603 1.96257,0.37238 2.47478,0.75396 1.94579,1.44958 3.67973,0.83147 5.50251,-1.96164 2.59589,-3.97777 5.36618,-4.86356 11.889706,-3.80183 1.67522,0.27265 1.83703,0.2335 3.73466,-0.90227 1.64552,-0.98487 2.90792,-0.99572 6.09627,-0.0538 3.40676,1.00658 5.87936,0.95936 10.61899,-0.20153 7.18177,-1.75907 8.77102,-1.53502 18.76113,2.64118 3.69297,1.54375 7.07873,1.57305 8.97929,0.078 0.86437,-0.67995 0.88009,-1.28881 0.0331,-1.28881 -1.3425,0 -8.80943,-2.22119 -12.91498,-3.84214 -1.55614,-0.61441 -0.40632,-1.05608 3.7729,-1.44849 3.52365,-0.33085 4.80727,-0.83409 6.04149,-2.36988 1.45214,-1.80699 1.19684,-2.1375 -1.04283,-1.35031 -5.67833,1.99577 -12.9846,2.08625 -12.24215,0.15141 0.0721,-0.18794 0.66257,-0.54466 1.31207,-0.79271 5.24203,-2.00196 4.67013,-4.34936 -1.74408,-7.15771 -2.54662,-1.11499 -5.59645,-2.55188 -6.77736,-3.1936 -5.07239,-2.75638 -13.55117,-4.50842 -20.91966,-4.5899 z m -29.629716,38.59454 c -0.0949,0 -0.16688,0.0608 -0.21652,0.18242 -0.0499,0.1106 -0.0726,0.28192 -0.0677,0.51418 l 0.22066,10.9306 c 0.005,0.22117 0.0324,0.398 0.0827,0.53072 0.0548,0.12164 0.12933,0.18241 0.22428,0.18241 0.0997,0 0.17215,-0.0608 0.21704,-0.18241 0.0446,-0.13272 0.0646,-0.30955 0.0599,-0.53072 l -0.0863,-4.88756 c 1.79315,0.1306 3.01772,-1.18971 3.00137,-3.22306 -0.0237,-1.11697 -0.18638,-1.97918 -0.48886,-2.58744 -0.30271,-0.61927 -1.17716,-0.92914 -1.71359,-0.92914 z m 96.055636,0.0631 c -0.36425,0 -0.69271,0.14063 -0.98598,0.42219 -0.29329,0.27072 -0.54177,0.66099 -0.74518,1.16996 -0.19867,0.49813 -0.35266,1.11 -0.46147,1.83555 -0.1041,0.7147 -0.15606,1.52691 -0.15606,2.43654 0,1.21285 0.0925,2.25754 0.27698,3.13469 0.18922,0.87715 0.45869,1.5539 0.80874,2.03037 0.35005,0.47648 0.771,0.71468 1.26297,0.71468 0.30275,0 0.58672,-0.097 0.85163,-0.29197 0.26963,-0.20575 0.5036,-0.50364 0.70228,-0.89348 0.2285,-0.55688 0.0249,-0.61558 -0.18035,-0.67128 -0.19166,-0.052 -0.37013,-0.1416 -0.601,0.46044 -0.20814,0.23378 -0.54284,0.52348 -0.77463,0.52348 -0.37371,0 -0.72343,-0.31028 -1.01647,-0.83199 -0.19443,-0.36818 -0.31455,-0.94819 -0.447,-1.64125 -0.13247,-0.70387 -0.16847,-1.54825 -0.16847,-2.53369 0,-0.98544 0.0515,-1.82514 0.18397,-2.51819 0.13245,-0.69307 0.28975,-1.18031 0.51366,-1.57562 0.22391,-0.39531 0.57934,-0.82316 0.95033,-0.86816 0.23338,-0.0283 0.49514,0.0459 0.65991,0.22737 0,0 0.25836,0.40207 0.57878,1.42989 0.0584,0.18737 0.61055,0.13457 0.6103,-0.12299 -3e-4,-0.3134 -0.23251,-1.15569 -0.33745,-1.31568 -0.19395,-0.36819 -0.42342,-0.64428 -0.68833,-0.82837 -0.2649,-0.19489 -0.54387,-0.29249 -0.83716,-0.29249 z M 58.045364,155.6436 c -0.248,-0.022 -0.50312,0.15059 -0.62838,0.5147 v 5.1e-4 c -1.17338,3.41075 -1.56952,9.35343 -1.69654,11.09958 0.17356,0.0941 0.48315,0.18404 0.77204,0.0476 0.0743,-0.0676 0.12743,-1.37081 0.19121,-2.05621 l 1.84175,0.0279 0.15502,1.98127 c 0.16819,0.37477 0.81514,0.23864 0.84388,0.004 -0.43204,-9.08864 -0.89452,-10.96471 -0.89452,-10.96471 -0.0956,-0.4155 -0.33646,-0.63222 -0.58446,-0.65422 z m 36.98327,0.008 c -0.10346,0 -0.18484,0.0496 -0.24391,0.14882 -0.1143,0.19201 -0.13143,0.28383 -0.0134,0.51729 0.0557,0.11029 0.13528,0.16536 0.23874,0.16536 h 1.68258 l -0.15813,10.23245 c -0.004,0.22051 0.0257,0.39686 0.0868,0.52917 0.0613,0.12132 0.14659,0.1819 0.2558,0.1819 0.12071,0 0.21034,-0.0606 0.26975,-0.1819 0.0653,-0.13231 0.0999,-0.30866 0.10335,-0.52917 l 0.15813,-10.23245 h 1.387 c 0.10347,0 0.18433,-0.0496 0.24339,-0.14883 0.12031,-0.22389 0.12773,-0.33279 0.0145,-0.53382 -0.0559,-0.0992 -0.13579,-0.14882 -0.23926,-0.14882 z m 50.575726,0.0341 c -0.24799,-0.022 -0.50312,0.15059 -0.62838,0.5147 v 5.2e-4 c -1.17338,3.41073 -1.56952,9.35341 -1.69654,11.09958 0.17356,0.0941 0.48315,0.18403 0.77204,0.0475 0.0743,-0.0676 0.12743,-1.37082 0.19121,-2.0562 l 1.84226,0.0279 0.15451,1.98127 c 0.16819,0.37477 0.81514,0.23864 0.84388,0.004 -0.43204,-9.08864 -0.89452,-10.9647 -0.89452,-10.9647 -0.0956,-0.4155 -0.33646,-0.63222 -0.58446,-0.65423 z m -21.66173,0.003 c -0.10401,0 -0.18462,0.0671 -0.24132,0.20154 -0.052,0.12319 -0.078,0.30759 -0.078,0.55397 v 10.33167 c 0,0.24638 0.026,0.43664 0.078,0.57103 0.0567,0.12319 0.13731,0.185 0.24132,0.185 h 2.42828 c 0.0804,0 0.1419,-0.0506 0.18448,-0.15141 0.0466,-0.17994 0,-0.45269 0,-0.45269 -0.0425,-0.10079 -0.10408,-0.15089 -0.18448,-0.15089 h -2.18023 v -4.67104 h 1.70377 c 0.0804,0 0.14199,-0.0506 0.18449,-0.15141 0.0866,-0.20511 0.0864,-0.44276 0,-0.62477 -0.0426,-0.10079 -0.10409,-0.15141 -0.18449,-0.15141 h -1.70377 v -4.68292 h 2.13475 c 0.0804,0 0.14189,-0.0501 0.18449,-0.15089 0.0425,-0.1007 0.0641,0.10564 0.0641,-0.0847 0,-0.17919 -0.0215,-0.31934 -0.0641,-0.42013 -0.0426,-0.10079 -0.10409,-0.1509 -0.18449,-0.1509 z m -37.790456,0.0243 c -0.10401,0 -0.1846,0.0671 -0.24133,0.20154 -0.052,0.12319 -0.078,0.30811 -0.078,0.55449 v 10.33115 c 0,0.24638 0.026,0.43715 0.078,0.57154 0.0567,0.12319 0.13732,0.18449 0.24133,0.18449 h 2.42828 c 0.0804,0 0.14193,-0.0501 0.18448,-0.1509 0.0466,-0.17994 0,-0.45268 0,-0.45268 -0.0426,-0.10079 -0.10411,-0.15142 -0.18448,-0.15142 h -2.18023 v -4.67103 h 1.70377 c 0.0804,0 0.14194,-0.0501 0.18449,-0.15089 0.0866,-0.20511 0.0864,-0.44328 0,-0.62529 -0.0426,-0.10079 -0.10412,-0.15089 -0.18449,-0.15089 h -1.70377 v -4.68292 h 2.13475 c 0.0804,0 0.14194,-0.0506 0.18449,-0.15141 0.0426,-0.1007 0.0641,0.10564 0.0641,-0.0848 0,-0.17919 -0.0215,-0.31883 -0.0641,-0.41962 -0.0426,-0.10079 -0.10412,-0.15141 -0.18449,-0.15141 z m 94.489846,0.008 c -0.10401,0 -0.18463,0.0671 -0.24133,0.20154 -0.052,0.12319 -0.0775,0.30811 -0.0775,0.55449 v 10.33173 c 0,0.24638 0.0255,0.43663 0.0775,0.57102 0.0567,0.12319 0.13732,0.185 0.24133,0.185 h 2.42879 c 0.0804,0 0.14188,-0.0506 0.18448,-0.15141 0.0466,-0.17994 0,-0.45217 0,-0.45217 -0.0426,-0.10079 -0.10408,-0.15141 -0.18448,-0.15141 h -2.18075 v -4.67103 h 1.70429 c 0.0804,0 0.14147,-0.0506 0.18397,-0.15141 0.0866,-0.20511 0.0864,-0.44276 0,-0.62477 -0.0426,-0.10079 -0.10357,-0.15141 -0.18397,-0.15141 h -1.70429 v -4.6824 h 2.13527 c 0.0804,0 0.14189,-0.0506 0.18449,-0.15142 0.0425,-0.1007 0.0636,0.10564 0.0636,-0.0848 0,-0.17919 -0.021,-0.31933 -0.0636,-0.42012 -0.0426,-0.10079 -0.10409,-0.1509 -0.18449,-0.1509 z m -67.08118,0.0579 c -0.10346,0 -0.18481,0.0496 -0.24391,0.14883 -0.11426,0.19201 -0.13144,0.28382 -0.0134,0.51728 0.0557,0.11029 0.13528,0.16536 0.23875,0.16536 h 1.68258 l -0.15813,10.23245 c -0.004,0.22051 0.0257,0.39686 0.0868,0.52917 0.0612,0.12112 0.14684,0.1817 0.2558,0.1819 0.12044,-1.8e-4 0.21043,-0.0608 0.26975,-0.1819 0.0653,-0.13231 0.0994,-0.30866 0.10335,-0.52917 l 0.15813,-10.23245 h 1.38699 c 0.10347,0 0.1843,-0.0496 0.2434,-0.14883 0.12029,-0.22389 0.12772,-0.33278 0.0145,-0.53381 -0.0559,-0.0992 -0.1358,-0.14883 -0.23926,-0.14883 z m 39.83323,0.11317 c -0.12239,0 -0.21743,0.059 -0.28474,0.17725 -0.0612,0.11826 -0.0915,0.29047 -0.0915,0.51625 v 10.06347 c 0,0.21501 0.0335,0.38672 0.10077,0.51573 0.0673,0.11826 0.16235,0.17725 0.28474,0.17725 h 2.26756 a 0.31233048,0.31233048 0 0 0 0.31213,-0.3142 l -0.001,-0.17776 a 0.35630155,0.35630155 0 0 0 -0.36328,-0.35399 l -1.84847,0.0362 v -9.94668 c 0,-0.22578 -0.0334,-0.39799 -0.10077,-0.51625 -0.0612,-0.11827 -0.15304,-0.17725 -0.27543,-0.17725 z m -48.07407,0.0202 c -0.11029,0 -0.19643,0.0496 -0.25942,0.14883 -0.12822,0.22389 -0.13569,0.33227 -0.015,0.5333 0.0596,0.0992 0.1445,0.14883 0.25477,0.14883 0.33843,-0.011 0.70751,-0.0587 0.68729,0.3607 l 0.008,9.47953 c 0.022,0.27075 -0.28087,0.21659 -0.49041,0.25579 -0.10915,-0.009 -0.19583,0.0496 -0.25839,0.14883 -0.12734,0.22389 -0.13434,0.33279 -0.0145,0.53382 0.0592,0.0992 0.14318,0.14883 0.25269,0.14883 h 1.7663 c 0.10952,0 0.19583,-0.0496 0.25839,-0.14883 0.12094,-0.19201 0.13937,-0.28382 0.0145,-0.51728 -0.059,-0.11029 -0.14317,-0.16537 -0.25269,-0.16537 h -0.3576 c -0.13487,0 -0.2444,-0.10955 -0.24443,-0.24443 -3.7e-4,-1.27008 -0.002,-6.51849 0,-9.49089 -0.009,-0.18962 0.10761,-0.36303 0.40927,-0.3607 0,0 0.19695,-0.0496 0.25994,-0.14883 0.12178,-0.19201 0.14023,-0.2833 0.0145,-0.51676 -0.0594,-0.11029 -0.14397,-0.16537 -0.25425,-0.16537 z m -58.107046,0.006 c -0.1224,0 -0.21742,0.059 -0.28474,0.17725 -0.0612,0.11826 -0.0915,0.29048 -0.0915,0.51624 v 10.06347 c 0,0.21503 0.0335,0.38672 0.10077,0.51573 0.0673,0.11826 0.16235,0.17725 0.28474,0.17725 h 2.26756 a 0.31233048,0.31233048 0 0 0 0.31213,-0.31419 l -10e-4,-0.17777 a 0.35630155,0.35630155 0 0 0 -0.36328,-0.35398 l -1.84847,0.0362 v -9.94668 c 0,-0.22576 -0.0334,-0.39798 -0.10077,-0.51624 -0.0612,-0.11827 -0.15304,-0.17725 -0.27543,-0.17725 z m 114.979546,0.0703 c -0.11029,0 -0.19643,0.0496 -0.25942,0.14883 -0.12822,0.22389 -0.13569,0.33227 -0.015,0.5333 0.0596,0.0992 0.1445,0.14882 0.25477,0.14882 0.33843,-0.011 0.70751,-0.0587 0.6873,0.36071 l 0.008,9.47952 c 0.022,0.27075 -0.28087,0.2166 -0.49041,0.2558 -0.10915,-0.009 -0.19582,0.0496 -0.25838,0.14883 -0.12735,0.22389 -0.13435,0.33278 -0.0145,0.53381 0.0592,0.0992 0.14318,0.14883 0.25269,0.14883 h 1.7663 c 0.10952,0 0.19583,-0.0496 0.25839,-0.14883 0.12094,-0.19201 0.13937,-0.28382 0.0145,-0.51728 -0.059,-0.11029 -0.14318,-0.16536 -0.2527,-0.16536 h -0.3576 c -0.13487,0 -0.24439,-0.10955 -0.24443,-0.24443 -3.7e-4,-1.2701 -0.002,-6.51851 0,-9.49089 -0.009,-0.18962 0.10761,-0.36304 0.40928,-0.36071 0,0 0.19694,-0.0496 0.25993,-0.14882 0.12178,-0.19201 0.14023,-0.28331 0.0145,-0.51677 -0.0594,-0.11029 -0.14397,-0.16536 -0.25425,-0.16536 z m -85.417526,0.16123 h 1.33118 c 0.22906,0 1.19982,0.6919 1.21853,2.78432 0.0147,1.64054 -1.10921,2.51401 -2.44894,2.6076 z m -18.86345,1.80661 c 0.25904,0.0234 0.34023,4.34157 0.52038,6.39547 l -1.61334,0.0419 c 0.60099,-5.82481 1.06764,-6.42597 1.06764,-6.42597 0.009,-0.008 0.017,-0.0121 0.0253,-0.0114 z m 87.559516,0.0424 c 0.25904,0.0234 0.33971,4.34157 0.51986,6.39548 l -1.61334,0.0418 c 0.60099,-5.82479 1.06764,-6.42596 1.06764,-6.42596 0.009,-0.008 0.0175,-0.0121 0.0258,-0.0114 z m -62.359506,17.81648 c -0.0896,0 -0.15675,0.0258 -0.20154,0.0775 -0.0448,0.047 -0.0672,0.11728 -0.0672,0.21136 v 4.48758 c 0,0.0941 0.0224,0.16685 0.0672,0.21859 0.0448,0.0517 0.11198,0.0775 0.20154,0.0775 0.18361,0 0.27544,-0.0985 0.27544,-0.2961 v -1.70739 c 0,-0.32456 0.0873,-0.58334 0.262,-0.77618 0.17913,-0.19756 0.41877,-0.29663 0.71882,-0.29663 0.25974,0 0.44787,0.0753 0.5643,0.22583 0.12092,0.14581 0.18139,0.37881 0.18139,0.69867 v 1.8557 c 0,0.0941 0.0224,0.16685 0.0672,0.21859 0.0493,0.0517 0.11869,0.0775 0.20825,0.0775 0.0851,0 0.15004,-0.0258 0.19482,-0.0775 0.0493,-0.0517 0.0739,-0.12452 0.0739,-0.21859 v -1.89084 c 0,-0.30574 -0.0425,-0.55744 -0.12764,-0.755 -0.0851,-0.20226 -0.21499,-0.35287 -0.38964,-0.45165 -0.17018,-0.0988 -0.38518,-0.14831 -0.64492,-0.14831 -0.27766,0 -0.52402,0.0708 -0.73898,0.21187 -0.15485,0.10036 -0.27765,0.23819 -0.36948,0.41238 v -1.86603 c 0,-0.0941 -0.0246,-0.16429 -0.0739,-0.21136 -0.0493,-0.0517 -0.11645,-0.0775 -0.20154,-0.0775 z m 35.327046,0 c -0.0851,0 -0.14867,0.0258 -0.19121,0.0775 -0.0425,0.047 -0.0636,0.11728 -0.0636,0.21136 v 4.48758 c 0,0.0941 0.0211,0.16685 0.0636,0.21859 0.0425,0.0517 0.10615,0.0775 0.19121,0.0775 0.17436,0 0.26148,-0.0985 0.26148,-0.2961 v -1.70739 c 0,-0.32456 0.0832,-0.58334 0.24908,-0.77618 0.17011,-0.19756 0.3977,-0.29663 0.68265,-0.29663 0.24666,0 0.4253,0.0753 0.53588,0.22583 0.11483,0.14581 0.17208,0.37881 0.17208,0.69867 v 1.8557 c 0,0.0941 0.021,0.16685 0.0636,0.21859 0.0468,0.0517 0.11286,0.0775 0.19792,0.0775 0.0809,0 0.14253,-0.0258 0.185,-0.0775 0.0468,-0.0517 0.0703,-0.12452 0.0703,-0.21859 v -1.89084 c 0,-0.30574 -0.0406,-0.55744 -0.12144,-0.755 -0.0808,-0.20226 -0.20416,-0.35287 -0.37,-0.45165 -0.16161,-0.0988 -0.3657,-0.14831 -0.61237,-0.14831 -0.26368,0 -0.49763,0.0708 -0.70177,0.21187 -0.14708,0.10038 -0.26367,0.23814 -0.35088,0.41238 v -1.86603 c 0,-0.0941 -0.023,-0.16429 -0.0698,-0.21136 -0.0468,-0.0517 -0.11092,-0.0775 -0.19172,-0.0775 z m 15.08952,0.0207 -0.20464,0.0212 c -0.42334,0.0376 -0.74528,0.1741 -0.96635,0.40928 -0.21638,0.23519 -0.32453,0.57634 -0.32453,1.02319 v 0.11989 h -0.45165 c -0.0752,0 -0.13639,0.0187 -0.18345,0.0563 -0.0423,0.0376 -0.0636,0.0917 -0.0636,0.16226 0,0.0706 0.0212,0.12717 0.0636,0.1695 0.047,0.0377 0.10819,0.0563 0.18345,0.0563 h 0.45165 v 2.73782 c 0,0.0941 0.0232,0.16685 0.0703,0.21859 0.0517,0.0517 0.1225,0.0775 0.21187,0.0775 0.19286,0 0.28887,-0.0985 0.28887,-0.2961 v -2.73782 h 0.76223 c 0.08,0 0.14112,-0.0187 0.18345,-0.0563 0.0423,-0.0423 0.0636,-0.0989 0.0636,-0.1695 0,-0.0706 -0.0212,-0.12466 -0.0636,-0.16226 -0.0423,-0.0376 -0.10349,-0.0563 -0.18345,-0.0563 h -0.76171 v -0.19068 c 0,-0.29164 0.0632,-0.51249 0.19017,-0.66301 0.1317,-0.1505 0.34094,-0.23744 0.62787,-0.26097 l 0.16226,-0.0139 c 0.047,-0.005 0.087,-0.0239 0.11989,-0.0568 0.0329,-0.0329 0.0542,-0.0703 0.0636,-0.11265 0.009,-0.047 0.007,-0.0915 -0.007,-0.13384 -0.009,-0.0424 -0.0352,-0.0777 -0.0775,-0.10594 -0.0376,-0.0282 -0.0897,-0.0403 -0.15554,-0.0357 z m -57.094196,0.0496 c -0.11759,0 -0.20906,0.0308 -0.27492,0.092 -0.0658,0.0564 -0.0987,0.14084 -0.0987,0.25373 0,0.10817 0.0328,0.1951 0.0987,0.26097 0.0659,0.0611 0.15733,0.092 0.27492,0.092 0.1223,0 0.21429,-0.0309 0.27544,-0.092 0.0659,-0.0659 0.0987,-0.15279 0.0987,-0.26097 0,-0.11287 -0.0328,-0.19727 -0.0987,-0.25373 -0.0611,-0.0611 -0.15314,-0.092 -0.27544,-0.092 z m 79.159516,0 c -0.11758,0 -0.20906,0.0308 -0.27492,0.092 -0.0659,0.0564 -0.0987,0.14084 -0.0987,0.25373 0,0.10817 0.0328,0.1951 0.0987,0.26097 0.0658,0.0611 0.15733,0.092 0.27492,0.092 0.12231,0 0.2143,-0.0309 0.27543,-0.092 0.0659,-0.0659 0.0987,-0.15279 0.0987,-0.26097 0,-0.11287 -0.0328,-0.19727 -0.0987,-0.25373 -0.0611,-0.0611 -0.15313,-0.092 -0.27543,-0.092 z m -76.018616,0.42323 c -0.0732,0 -0.13125,0.0258 -0.17364,0.0775 -0.0424,0.047 -0.0636,0.11779 -0.0636,0.21187 v 0.81132 h -0.38705 c -0.0655,0 -0.1157,0.0187 -0.15038,0.0563 -0.0347,0.0376 -0.0522,0.0917 -0.0522,0.16226 0,0.0706 0.0175,0.12717 0.0522,0.1695 0.0347,0.0377 0.0849,0.0563 0.15038,0.0563 h 0.38705 v 1.79937 c 0,0.26812 0.0363,0.49605 0.10956,0.6842 0.0732,0.18345 0.18326,0.32497 0.32969,0.42375 0.15028,0.0941 0.33537,0.14107 0.55501,0.14107 0.0616,0 0.12884,-0.01 0.20205,-0.0284 0.0771,-0.0141 0.13876,-0.0308 0.185,-0.0496 0.0424,-0.0189 0.0714,-0.0517 0.0868,-0.0987 0.0193,-0.047 0.0289,-0.0986 0.0289,-0.15503 0,-0.08 -0.0115,-0.13657 -0.0346,-0.1695 -0.0231,-0.0329 -0.0521,-0.047 -0.0868,-0.0424 -0.0347,0 -0.0789,0.01 -0.13281,0.0284 -0.0501,0.0188 -0.11179,0.0284 -0.185,0.0284 -0.20808,0 -0.35866,-0.0682 -0.45114,-0.20464 -0.0925,-0.14111 -0.13849,-0.3458 -0.13849,-0.61391 v -1.74305 h 0.72812 c 0.0655,0 0.1157,-0.0187 0.15038,-0.0563 0.0347,-0.0423 0.0522,-0.0989 0.0522,-0.1695 0,-0.0706 -0.0175,-0.12466 -0.0522,-0.16226 -0.0347,-0.0376 -0.0849,-0.0563 -0.15038,-0.0563 h -0.72812 v -0.81132 c 0,-0.0941 -0.0212,-0.16487 -0.0636,-0.21187 -0.0385,-0.0517 -0.0942,-0.0775 -0.16743,-0.0775 z m 20.990956,0 c -0.0794,0 -0.14211,0.0258 -0.1881,0.0775 -0.046,0.047 -0.0687,0.11779 -0.0687,0.21187 v 0.81132 h -0.420126 c -0.0711,0 -0.12567,0.0187 -0.1633,0.0563 -0.0376,0.0376 -0.0563,0.0917 -0.0563,0.16226 0,0.0706 0.0187,0.12717 0.0563,0.1695 0.0376,0.0377 0.0922,0.0563 0.1633,0.0563 h 0.420126 v 1.79937 c 0,0.26812 0.0394,0.49605 0.11886,0.6842 0.0794,0.18345 0.19874,0.32497 0.3576,0.42375 0.16303,0.0941 0.36375,0.14107 0.60203,0.14107 0.0669,0 0.13968,-0.01 0.21911,-0.0284 0.0836,-0.0141 0.15085,-0.0308 0.20102,-0.0496 0.046,-0.0189 0.0773,-0.0517 0.0941,-0.0987 0.0209,-0.047 0.031,-0.0986 0.031,-0.15503 0,-0.08 -0.0121,-0.13657 -0.0372,-0.1695 -0.0251,-0.0329 -0.0564,-0.047 -0.0941,-0.0424 -0.0376,0 -0.0862,0.01 -0.1447,0.0284 -0.0543,0.0188 -0.12107,0.0284 -0.2005,0.0284 -0.22574,0 -0.38853,-0.0682 -0.48886,-0.20464 -0.10033,-0.14111 -0.1509,-0.3458 -0.1509,-0.61391 v -1.74305 h 0.79014 c 0.0711,0 0.12567,-0.0187 0.16329,-0.0563 0.0376,-0.0423 0.0563,-0.0989 0.0563,-0.1695 0,-0.0706 -0.0187,-0.12466 -0.0563,-0.16226 -0.0376,-0.0376 -0.0922,-0.0563 -0.16329,-0.0563 h -0.79014 v -0.81132 c 0,-0.0941 -0.0227,-0.16487 -0.0687,-0.21187 -0.0418,-0.0517 -0.10247,-0.0775 -0.1819,-0.0775 z m 4.59404,1.03715 c -0.23581,0 -0.44947,0.0425 -0.64079,0.12712 -0.18687,0.08 -0.34938,0.19773 -0.48731,0.35295 -0.13792,0.15523 -0.24197,0.34324 -0.31316,0.56431 -0.0712,0.21637 -0.10697,0.46099 -0.10697,0.73381 0,0.36218 0.062,0.67756 0.18655,0.94567 0.12903,0.26341 0.30918,0.46758 0.54054,0.6134 0.23136,0.14582 0.50524,0.21911 0.82114,0.21911 0.23581,0 0.4472,-0.0404 0.63407,-0.1204 0.19131,-0.0847 0.35558,-0.20445 0.49351,-0.35967 0.13792,-0.15993 0.243,-0.34794 0.31419,-0.56431 0.0712,-0.21637 0.10645,-0.46099 0.10645,-0.7338 0,-0.36219 -0.0648,-0.67504 -0.19378,-0.93845 -0.12458,-0.26811 -0.30246,-0.47482 -0.53382,-0.62063 -0.23136,-0.14582 -0.50473,-0.21911 -0.82062,-0.21911 z m 9.98337,0 c -0.23249,0 -0.44187,0.0399 -0.62787,0.11989 -0.18177,0.08 -0.33817,0.19772 -0.46922,0.35295 -0.13105,0.15052 -0.23002,0.33399 -0.29766,0.55035 -0.0676,0.21638 -0.1018,0.461 -0.1018,0.73381 0,0.35748 0.0594,0.67286 0.17777,0.94568 0.12259,0.26811 0.29582,0.47735 0.51986,0.62787 0.22405,0.15052 0.49034,0.22582 0.79892,0.22582 0.15219,0 0.30858,-0.0263 0.46922,-0.078 0.16064,-0.0564 0.30863,-0.14538 0.4439,-0.26768 0.0423,-0.0329 0.07,-0.0708 0.0827,-0.11317 0.0127,-0.047 0.0127,-0.094 0,-0.14108 -0.008,-0.047 -0.0278,-0.0845 -0.0574,-0.11266 -0.0296,-0.0329 -0.0652,-0.0522 -0.10749,-0.0568 -0.0423,-0.005 -0.0869,0.012 -0.13333,0.0496 -0.11413,0.094 -0.22847,0.15974 -0.34261,0.1974 -0.10991,0.0376 -0.21729,0.0568 -0.32298,0.0568 -0.32127,0 -0.56876,-0.11777 -0.74207,-0.35295 -0.17332,-0.23989 -0.25993,-0.56437 -0.25993,-0.97359 0,-0.21167 0.0213,-0.39767 0.0636,-0.55759 0.0465,-0.15992 0.11183,-0.29385 0.19637,-0.40204 0.0845,-0.10816 0.18798,-0.19054 0.31057,-0.24701 0.1226,-0.0611 0.26664,-0.0915 0.4315,-0.0915 0.10569,0 0.21556,0.0187 0.3297,0.0563 0.11414,0.0376 0.22599,0.10333 0.33589,0.1974 0.0464,0.0376 0.091,0.0543 0.13333,0.0496 0.0465,-0.005 0.0846,-0.0214 0.1142,-0.0496 0.0295,-0.0329 0.0504,-0.0708 0.0631,-0.11317 0.0127,-0.047 0.0127,-0.094 0,-0.14108 -0.0126,-0.047 -0.0398,-0.087 -0.0822,-0.11988 -0.13527,-0.12701 -0.28575,-0.21647 -0.45062,-0.26821 -0.16484,-0.0517 -0.32323,-0.0775 -0.47542,-0.0775 z m 13.16767,0 c -0.2466,0 -0.47018,0.0425 -0.67024,0.12712 -0.19542,0.08 -0.36529,0.19773 -0.50953,0.35295 -0.14423,0.15523 -0.2537,0.34324 -0.32814,0.56431 -0.0745,0.21637 -0.11163,0.46099 -0.11163,0.73381 0,0.36218 0.0651,0.67756 0.19534,0.94567 0.13493,0.26341 0.32341,0.46758 0.56534,0.6134 0.24196,0.14582 0.5285,0.21911 0.85886,0.21911 0.2466,0 0.46758,-0.0404 0.66301,-0.1204 0.20007,-0.0847 0.37202,-0.20445 0.51625,-0.35967 0.14424,-0.15993 0.25369,-0.34794 0.32814,-0.56431 0.0745,-0.21637 0.11163,-0.46099 0.11163,-0.7338 0,-0.36219 -0.0676,-0.67504 -0.20258,-0.93845 -0.13029,-0.26811 -0.31616,-0.47482 -0.5581,-0.62063 -0.24195,-0.14582 -0.528,-0.21911 -0.85835,-0.21911 z m 12.36411,0 c -0.24978,0 -0.46599,0.0733 -0.64803,0.21911 -0.13307,0.10561 -0.23875,0.24548 -0.31729,0.41961 v -0.33538 c 0,-0.0941 -0.0232,-0.16436 -0.0698,-0.21136 -0.0423,-0.0517 -0.10354,-0.0775 -0.18397,-0.0775 -0.0804,0 -0.14215,0.0258 -0.18449,0.0775 -0.0423,0.047 -0.0636,0.11729 -0.0636,0.21136 v 2.94246 c 0,0.0941 0.0212,0.16685 0.0636,0.21859 0.0423,0.0517 0.10602,0.0775 0.19069,0.0775 0.17357,0 0.26045,-0.0985 0.26045,-0.2961 v -1.69344 c 0,-0.33397 0.0721,-0.59729 0.21601,-0.79013 0.14817,-0.19756 0.34905,-0.29663 0.60306,-0.29663 0.22861,0 0.39149,0.0753 0.48886,0.22583 0.1016,0.14581 0.15245,0.37628 0.15245,0.69143 v 1.86294 c 0,0.0941 0.0212,0.16685 0.0636,0.21859 0.0466,0.0517 0.11025,0.0775 0.19068,0.0775 0.0847,0 0.14791,-0.0258 0.19017,-0.0775 0.0465,-0.0517 0.0698,-0.12452 0.0698,-0.21859 v -1.69344 c 0,-0.33397 0.0721,-0.59729 0.216,-0.79013 0.14818,-0.19756 0.34958,-0.29663 0.60358,-0.29663 0.23284,0 0.3977,0.0753 0.49506,0.22583 0.0974,0.14581 0.14625,0.37628 0.14625,0.69143 v 1.86294 c 0,0.0941 0.0212,0.16685 0.0636,0.21859 0.0466,0.0517 0.10973,0.0775 0.19017,0.0775 0.0847,0 0.14842,-0.0258 0.19069,-0.0775 0.0465,-0.0517 0.0698,-0.12452 0.0698,-0.21859 v -1.89084 c 0,-0.30574 -0.038,-0.55744 -0.11421,-0.755 -0.0762,-0.20226 -0.19073,-0.35287 -0.34313,-0.45165 -0.14816,-0.0988 -0.33869,-0.14831 -0.57154,-0.14831 -0.26246,0 -0.49297,0.0778 -0.69195,0.23306 -0.15367,0.11878 -0.26947,0.27343 -0.34933,0.4625 -0.0615,-0.21167 -0.15852,-0.37343 -0.29197,-0.48369 -0.16088,-0.1411 -0.37264,-0.21187 -0.6351,-0.21187 z m 10.94558,0 c -0.19447,0 -0.37125,0.0425 -0.53072,0.12712 -0.15556,0.08 -0.28976,0.1952 -0.40255,0.34572 -0.1089,0.14581 -0.19281,0.32473 -0.25115,0.5364 -0.0583,0.20696 -0.0873,0.43742 -0.0873,0.69143 0,0.33867 0.0508,0.63737 0.15193,0.89607 0.10501,0.25871 0.25229,0.46087 0.44287,0.60668 0.19059,0.14112 0.41637,0.21188 0.67696,0.21188 0.25281,0 0.4727,-0.0804 0.65939,-0.2403 0.14155,-0.11879 0.24611,-0.26852 0.31471,-0.44959 v 0.5979 c 0,0.33867 -0.0716,0.59743 -0.21549,0.77618 -0.14001,0.17874 -0.34811,0.2682 -0.62425,0.2682 -0.15169,0 -0.30539,-0.0237 -0.46095,-0.0708 -0.15559,-0.047 -0.31877,-0.13397 -0.4899,-0.26097 -0.0389,-0.0235 -0.0779,-0.0306 -0.11678,-0.0212 -0.035,0.009 -0.0662,0.0306 -0.0935,0.0636 -0.0272,0.0376 -0.0449,0.0776 -0.0527,0.11989 -0.007,0.0471 -0.006,0.0941 0.006,0.14108 0.0155,0.047 0.0463,0.087 0.093,0.11989 0.15946,0.12698 0.33676,0.21897 0.53123,0.27543 0.19835,0.0611 0.40056,0.0915 0.60668,0.0915 0.42005,0 0.73694,-0.13393 0.95085,-0.40204 0.21782,-0.26341 0.3266,-0.65611 0.3266,-1.17822 v -2.94194 c 0,-0.0941 -0.0195,-0.16488 -0.0584,-0.21188 -0.0389,-0.0517 -0.0969,-0.0775 -0.17466,-0.0775 -0.0739,0 -0.13242,0.0258 -0.17519,0.0775 -0.0389,0.047 -0.0584,0.1178 -0.0584,0.21188 v 0.36742 c -0.0658,-0.17373 -0.1664,-0.31755 -0.30283,-0.43098 -0.18669,-0.15992 -0.4089,-0.2403 -0.66559,-0.2403 z m 7.91476,0 c -0.22154,0 -0.42066,0.0399 -0.59789,0.11989 -0.17321,0.08 -0.32214,0.19772 -0.447,0.35295 -0.12486,0.15052 -0.21976,0.33399 -0.28422,0.55035 -0.0645,0.21638 -0.0966,0.461 -0.0966,0.73381 0,0.35748 0.0562,0.67286 0.16898,0.94568 0.11682,0.26811 0.2821,0.47735 0.49558,0.62787 0.21349,0.15052 0.46715,0.22582 0.76119,0.22582 0.14502,0 0.29395,-0.0263 0.44701,-0.078 0.15306,-0.0564 0.29433,-0.14538 0.42323,-0.26768 0.0403,-0.0329 0.0665,-0.0708 0.0785,-0.11317 0.0121,-0.047 0.0121,-0.094 0,-0.14108 -0.008,-0.047 -0.0266,-0.0845 -0.0548,-0.11266 -0.0281,-0.0329 -0.062,-0.0522 -0.10232,-0.0568 -0.0403,-0.005 -0.0828,0.012 -0.12713,0.0496 -0.10876,0.094 -0.21732,0.15974 -0.32608,0.1974 -0.10472,0.0376 -0.2078,0.0568 -0.3085,0.0568 -0.30614,0 -0.54179,-0.11777 -0.70694,-0.35295 -0.16515,-0.23989 -0.24753,-0.56437 -0.24753,-0.97359 0,-0.21167 0.0201,-0.39767 0.0605,-0.55759 0.0443,-0.15992 0.10703,-0.29385 0.18759,-0.40204 0.0806,-0.10816 0.17929,-0.19054 0.29611,-0.24701 0.11681,-0.0611 0.25373,-0.092 0.41082,-0.092 0.1007,0 0.20544,0.0192 0.3142,0.0568 0.10875,0.0376 0.21515,0.10333 0.31987,0.1974 0.0443,0.0376 0.0868,0.0543 0.12713,0.0496 0.0443,-0.005 0.0803,-0.0214 0.10852,-0.0496 0.0283,-0.0329 0.0484,-0.0708 0.0605,-0.11317 0.0121,-0.047 0.0121,-0.094 0,-0.14108 -0.012,-0.047 -0.0382,-0.087 -0.0786,-0.11988 -0.12889,-0.12701 -0.27181,-0.21647 -0.42891,-0.26821 -0.1571,-0.0517 -0.3082,-0.0775 -0.45321,-0.0775 z m -66.662076,5.2e-4 c -0.16741,0 -0.34356,0.0233 -0.52813,0.0703 -0.18458,0.047 -0.37131,0.12234 -0.56018,0.22582 -0.0515,0.0282 -0.09,0.0656 -0.11575,0.11266 -0.0215,0.047 -0.0302,0.0966 -0.0258,0.14831 0.004,0.0471 0.0192,0.0895 0.045,0.12712 0.0258,0.0376 0.0604,0.0634 0.10335,0.0775 0.0429,0.009 0.0944,-0.002 0.15451,-0.0351 0.16741,-0.0941 0.32622,-0.16231 0.47646,-0.20464 0.15024,-0.0423 0.30038,-0.0636 0.45062,-0.0636 0.24467,0 0.42082,0.0657 0.52813,0.1974 0.10732,0.127 0.16072,0.33624 0.16072,0.62787 v 0.21911 h -0.20619 c -0.47218,0 -0.84563,0.0303 -1.12035,0.0915 -0.27043,0.0611 -0.4653,0.16476 -0.58549,0.31058 -0.1159,0.14581 -0.17415,0.34545 -0.17415,0.59945 0,0.19755 0.0496,0.37647 0.14831,0.5364 0.0987,0.15992 0.23153,0.28678 0.39894,0.38085 0.1717,0.0894 0.36519,0.13436 0.57981,0.13436 0.176,0 0.33481,-0.0354 0.47646,-0.10593 0.14165,-0.0706 0.25955,-0.16911 0.35398,-0.29611 0.0587,-0.0754 0.10567,-0.16054 0.1416,-0.25425 v 0.34572 c 0,0.0941 0.0217,0.16685 0.0646,0.21859 0.0429,0.0517 0.105,0.078 0.18655,0.078 0.0773,0 0.135,-0.0263 0.17364,-0.078 0.0429,-0.0517 0.0646,-0.12452 0.0646,-0.21859 v -1.91203 c 0,-0.30575 -0.0428,-0.55491 -0.12867,-0.74776 -0.0858,-0.19756 -0.21675,-0.34363 -0.39274,-0.4377 -0.176,-0.0988 -0.3993,-0.14779 -0.66973,-0.14779 z m 54.254056,0 c -0.16512,0 -0.33885,0.0233 -0.5209,0.0703 -0.18205,0.047 -0.36613,0.12234 -0.55242,0.22582 -0.0508,0.0282 -0.0888,0.0656 -0.11421,0.11266 -0.0209,0.047 -0.0298,0.0966 -0.0258,0.14831 0.004,0.0471 0.0196,0.0895 0.045,0.12712 0.0254,0.0376 0.059,0.0634 0.10129,0.0775 0.0423,0.009 0.0932,-0.002 0.15244,-0.0351 0.16512,-0.0941 0.32207,-0.16231 0.47026,-0.20464 0.14818,-0.0423 0.29624,-0.0636 0.44442,-0.0636 0.24132,0 0.41505,0.0657 0.52089,0.1974 0.10585,0.127 0.15865,0.33624 0.15865,0.62787 v 0.21911 h -0.20309 c -0.46571,0 -0.8344,0.0303 -1.10536,0.0915 -0.26673,0.0611 -0.4592,0.16476 -0.57774,0.31058 -0.11431,0.14581 -0.17156,0.34545 -0.17156,0.59945 0,0.19755 0.0489,0.37647 0.14624,0.5364 0.0974,0.15992 0.22865,0.28678 0.39377,0.38085 0.16935,0.0894 0.35985,0.13436 0.57155,0.13436 0.17358,0 0.33002,-0.0354 0.46973,-0.10593 0.13972,-0.0706 0.25619,-0.16911 0.34934,-0.29611 0.0578,-0.0754 0.10409,-0.16056 0.13952,-0.25425 v 0.34572 c 0,0.0941 0.0212,0.16685 0.0636,0.21859 0.0423,0.0517 0.10404,0.078 0.18448,0.078 0.0762,0 0.13292,-0.0263 0.17105,-0.078 0.0423,-0.0517 0.0636,-0.12452 0.0636,-0.21859 v -1.91203 c 0,-0.30575 -0.0425,-0.55491 -0.12712,-0.74776 -0.0847,-0.19756 -0.21347,-0.34363 -0.38706,-0.4377 -0.17358,-0.0988 -0.39369,-0.14779 -0.66042,-0.14779 z m -77.521886,0.0139 c -0.0636,0 -0.11677,0.0162 -0.15916,0.0491 -0.0424,0.0329 -0.07,0.0799 -0.0827,0.14108 -0.008,0.0611 4.1e-4,0.13191 0.0258,0.21187 l 0.94723,2.85719 c 0.0339,0.0941 0.0787,0.16231 0.13384,0.20464 0.0551,0.0423 0.11862,0.0636 0.19069,0.0636 0.0763,0 0.14178,-0.0212 0.19689,-0.0636 0.0551,-0.047 0.0975,-0.11526 0.12712,-0.20464 l 0.7984,-2.44688 0.80409,2.44688 c 0.0297,0.0893 0.072,0.15757 0.12712,0.20464 0.0551,0.0423 0.11862,0.0636 0.19069,0.0636 0.0721,0 0.13609,-0.0212 0.1912,-0.0636 0.0593,-0.047 0.10365,-0.11526 0.13332,-0.20464 l 0.94723,-2.85719 c 0.0255,-0.0706 0.0363,-0.13679 0.032,-0.19792 -0.004,-0.0611 -0.0254,-0.11013 -0.0636,-0.14779 -0.0339,-0.0376 -0.0846,-0.0563 -0.15244,-0.0563 -0.0593,0 -0.11057,0.0162 -0.15297,0.0491 -0.0424,0.0282 -0.0783,0.0848 -0.108,0.1695 l -0.82941,2.60604 -0.82372,-2.59209 c -0.0254,-0.0799 -0.0614,-0.13855 -0.108,-0.17621 -0.0466,-0.0376 -0.10426,-0.0563 -0.17209,-0.0563 -0.0721,0 -0.13113,0.0187 -0.17776,0.0563 -0.0424,0.0329 -0.0783,0.0915 -0.10801,0.17621 l -0.83819,2.58382 -0.81545,-2.58382 c -0.0254,-0.0894 -0.0594,-0.15051 -0.10181,-0.18345 -0.0382,-0.0329 -0.0889,-0.0491 -0.15244,-0.0491 z m 39.318526,0 c -0.0894,0 -0.16013,0.0233 -0.21187,0.0703 -0.047,0.047 -0.0708,0.11982 -0.0708,0.21859 v 1.89136 c 0,0.30104 0.045,0.55221 0.13436,0.75447 0.0941,0.20226 0.23053,0.35541 0.40928,0.45889 0.18344,0.0988 0.41391,0.14831 0.69143,0.14831 0.28223,0 0.52886,-0.0733 0.74052,-0.21911 0.15691,-0.10574 0.28155,-0.24616 0.37414,-0.42116 v 0.3297 c 0,0.0941 0.0237,0.16685 0.0708,0.21859 0.0517,0.0517 0.12199,0.0775 0.21135,0.0775 0.18345,0 0.27544,-0.0985 0.27544,-0.2961 v -2.94246 c 0,-0.0987 -0.0258,-0.17152 -0.0775,-0.21859 -0.047,-0.047 -0.11527,-0.0703 -0.20463,-0.0703 -0.0941,0 -0.16738,0.0233 -0.21911,0.0703 -0.0471,0.047 -0.0703,0.11982 -0.0703,0.21859 v 1.70791 c 0,0.31985 -0.092,0.57811 -0.27544,0.77566 -0.18344,0.19755 -0.42098,0.29662 -0.71262,0.29662 -0.26811,0 -0.46573,-0.0728 -0.59273,-0.21859 -0.12229,-0.15052 -0.18345,-0.37644 -0.18345,-0.67748 v -1.88412 c 0,-0.0987 -0.0258,-0.17152 -0.0775,-0.21859 -0.047,-0.047 -0.11729,-0.0703 -0.21136,-0.0703 z m -32.490006,0.0139 c -0.0941,0 -0.16431,0.0258 -0.21135,0.0775 -0.047,0.0517 -0.0708,0.12704 -0.0708,0.22582 v 2.88561 c 0,0.0988 0.0238,0.1766 0.0708,0.23307 0.047,0.0517 0.11728,0.0775 0.21135,0.0775 0.0941,0 0.16484,-0.0258 0.21188,-0.0775 0.0517,-0.0564 0.0775,-0.13429 0.0775,-0.23307 v -2.88561 c 0,-0.0988 -0.0258,-0.17409 -0.0775,-0.22582 -0.0517,-0.0517 -0.12251,-0.0775 -0.21188,-0.0775 z m 79.159516,0 c -0.0941,0 -0.16436,0.0258 -0.21136,0.0775 -0.0471,0.0517 -0.0708,0.12704 -0.0708,0.22582 v 2.88561 c 0,0.0988 0.0237,0.1766 0.0708,0.23307 0.047,0.0517 0.11728,0.0775 0.21136,0.0775 0.0941,0 0.16487,-0.0258 0.21187,-0.0775 0.0517,-0.0564 0.0775,-0.13429 0.0775,-0.23307 v -2.88561 c 0,-0.0988 -0.0258,-0.17409 -0.0775,-0.22582 -0.0517,-0.0517 -0.1225,-0.0775 -0.21187,-0.0775 z m -50.43362,0.43047 c 0.30699,0 0.54963,0.1127 0.7276,0.33848 0.18242,0.22578 0.27337,0.55278 0.27337,0.98082 0,0.27751 -0.0421,0.51505 -0.12661,0.71261 -0.0801,0.19756 -0.19599,0.34818 -0.34726,0.45166 -0.15128,0.10348 -0.32689,0.15503 -0.5271,0.15503 -0.30255,0 -0.54519,-0.11271 -0.72761,-0.33849 -0.18241,-0.23048 -0.27336,-0.55748 -0.27336,-0.98081 0,-0.28693 0.0398,-0.527 0.11989,-0.71986 0.0845,-0.19755 0.19992,-0.34563 0.34674,-0.44441 0.15128,-0.10348 0.32967,-0.15503 0.53434,-0.15503 z m 23.15104,0 c 0.32104,0 0.57456,0.1127 0.76068,0.33848 0.19076,0.22578 0.28629,0.55278 0.28629,0.98082 0,0.27751 -0.0445,0.51505 -0.13281,0.71261 -0.0838,0.19756 -0.20509,0.34818 -0.36329,0.45166 -0.15821,0.10348 -0.3415,0.15503 -0.55087,0.15503 -0.3164,0 -0.57041,-0.11271 -0.76119,-0.33849 -0.19076,-0.23048 -0.28577,-0.55748 -0.28577,-0.98081 0,-0.28693 0.0412,-0.527 0.12506,-0.71986 0.0885,-0.19755 0.20974,-0.34563 0.36328,-0.44441 0.1582,-0.10348 0.34458,-0.15503 0.55862,-0.15503 z m 23.39754,0 c 0.27226,0 0.48753,0.1127 0.64699,0.33848 0.15946,0.22107 0.23926,0.52229 0.23926,0.9033 0,0.254 -0.0367,0.47486 -0.11059,0.66301 -0.07,0.18815 -0.1711,0.33422 -0.30334,0.4377 -0.13223,0.0988 -0.28951,0.14779 -0.47232,0.14779 -0.26836,0 -0.48235,-0.1127 -0.64182,-0.33848 -0.15946,-0.22577 -0.23926,-0.52902 -0.23926,-0.91002 0,-0.25401 0.0349,-0.47285 0.1049,-0.65629 0.0739,-0.18815 0.1773,-0.33168 0.30954,-0.43046 0.13223,-0.10348 0.28774,-0.15503 0.46664,-0.15503 z m -58.345786,1.418 h 0.19947 v 0.21187 c 0,0.20226 -0.0385,0.38067 -0.11576,0.53589 -0.073,0.15522 -0.17596,0.27753 -0.30902,0.3669 -0.12878,0.0894 -0.27892,0.13436 -0.45062,0.13436 -0.21034,0 -0.37781,-0.0611 -0.5023,-0.18345 -0.12019,-0.1223 -0.18035,-0.27999 -0.18035,-0.47284 0,-0.15522 0.0385,-0.275 0.11576,-0.35967 0.0816,-0.0847 0.22112,-0.1438 0.41858,-0.17673 0.20174,-0.0377 0.47654,-0.0563 0.82424,-0.0563 z m 54.247326,0 h 0.19689 v 0.21187 c 0,0.20226 -0.038,0.38067 -0.1142,0.53589 -0.072,0.15522 -0.17366,0.27753 -0.30489,0.3669 -0.12701,0.0894 -0.27558,0.13436 -0.44494,0.13436 -0.20745,0 -0.37228,-0.0611 -0.49506,-0.18345 -0.11855,-0.1223 -0.17777,-0.27999 -0.17777,-0.47284 0,-0.15522 0.038,-0.275 0.11421,-0.35967 0.0804,-0.0847 0.21814,-0.1438 0.41289,-0.17673 0.19899,-0.0377 0.46993,-0.0563 0.81287,-0.0563 z m -48.962896,9.72705 c -0.20684,-0.008 -0.30851,0.16064 -0.30851,0.50436 0,0.22139 -0.25507,0.38086 -0.60823,0.38086 -0.53529,0 -0.60666,0.12727 -0.59531,1.05833 0.0176,1.44691 1.36332,1.80644 2.82049,0.75396 0.891026,-0.64356 8.305326,2.91736 9.783896,4.69894 0.78078,0.94079 -3.77752,-0.43467 -4.91856,-1.48415 -1.41326,-1.29988 -2.61927,-1.66919 -1.53376,-0.46974 0.52146,0.57621 -0.0762,0.40977 -2.22053,-0.61805 -1.316516,-0.63101 -3.389456,-0.61315 -3.389456,0.0295 0,0.65983 1.70756,1.3699 2.926946,1.21698 1.18618,-0.14875 2.23243,0.0394 2.23243,0.40153 0,0.12855 -0.32127,0.23357 -0.71417,0.23357 -0.48896,0 -0.62894,0.0863 -0.44287,0.27234 0.14951,0.14951 0.97731,0.2767 1.83916,0.2837 1.62741,0.0128 4.87413,0.70292 4.87413,1.03611 0,0.28546 -1.74229,0.51894 -3.90261,0.52194 -2.68742,0.004 -2.39523,0.4191 0.43667,0.62011 1.72245,0.12227 2.6996,0.0625 3.63802,-0.22221 1.68246,-0.51047 8.27577,-0.56248 8.19227,-0.0646 -0.11298,0.67379 -0.69079,1.45973 -1.40819,1.91513 -0.60124,0.38168 -0.54416,0.26605 0.30748,-0.62374 1.38091,-1.4427 0.98413,-1.40123 -0.59428,0.062 -0.68499,0.63501 -1.60259,1.34437 -2.03915,1.57665 -0.78266,0.41644 -0.7845,0.42247 -0.13229,0.43047 0.7297,0.009 2.69654,-1.09632 4.42557,-2.48667 0.75262,-0.60521 2.07138,-1.20669 4.03231,-1.83968 1.60262,-0.51732 3.49917,-1.2373 4.21473,-1.59991 1.29183,-0.65462 1.75456,-0.40317 0.8325,0.45217 -0.28609,0.26542 -0.31313,0.2518 -0.14159,-0.0692 0.66023,-1.23581 -1.63331,1.45609 -2.53783,2.97863 -1.26558,2.13024 -1.21814,2.33275 0.33228,1.42368 1.69052,-0.99122 2.98277,-2.45828 3.9362,-4.46794 0.83403,-1.75801 0.88335,-1.80405 3.19928,-3.02514 3.39807,-1.79166 2.70132,-2.21876 -0.80512,-0.49351 -2.903,1.42835 -2.7322,1.42129 -6.90242,0.27595 -1.13061,-0.31051 -1.77232,-0.33995 -2.89284,-0.13281 -0.79197,0.1464 -1.50769,0.26827 -1.59009,0.27027 -0.54217,0.0147 0.79068,0.51842 1.38028,0.52142 0.40486,0.002 1.17876,0.18934 1.71979,0.41599 0.54103,0.22665 1.74535,0.48363 2.67632,0.57103 1.69269,0.15899 1.6927,0.15877 0.26459,0.89813 -0.78545,0.40665 -1.64361,0.74489 -1.90686,0.75189 -0.26326,0.007 -0.41182,0.12075 -0.33022,0.2527 0.0815,0.1319 -0.10872,0.17258 -0.42271,0.0904 -0.33888,-0.0886 -0.50603,-0.0439 -0.41083,0.11007 0.0916,0.14817 -0.20274,0.26426 -0.68626,0.27026 -0.46561,0.006 -1.6799,0.0969 -2.69854,0.20258 -1.84797,0.19169 -1.85588,0.18985 -3.57188,-0.89814 -2.05536,-1.30316 -3.17642,-1.83357 -4.31343,-2.03967 -0.82383,-0.14933 -0.81497,-0.13296 0.34468,0.6258 0.65485,0.42846 1.36922,0.99677 1.5875,1.26297 0.21828,0.2662 0.87313,0.71177 1.45521,0.99012 1.05833,0.50611 1.05833,0.50618 0.16537,0.35502 -0.49113,-0.0832 -1.33564,-0.15141 -1.87689,-0.15141 -0.80175,0 -1.26155,-0.24255 -2.48202,-1.31051 -1.75484,-1.53564 -4.17428,-2.93904 -6.85488,-3.97651 -1.22791,-0.47524 -2.32586,-1.13379 -3.057176,-1.83348 -0.62259,-0.59564 -1.06267,-0.89805 -1.3286,-0.90847 z m 0.32918,0.62064 c 0.37766,0 1.214386,0.55327 1.214386,0.80305 0,0.41518 -0.412976,0.29304 -0.926036,-0.27389 -0.26338,-0.29105 -0.39323,-0.52916 -0.28835,-0.52916 z m -0.95912,0.56172 c 0.10664,-0.002 0.20014,0.0229 0.2496,0.0724 0.0879,0.088 -0.0684,0.15051 -0.34727,0.13901 -0.30822,-0.0127 -0.37074,-0.0752 -0.15968,-0.15968 0.0836,-0.0334 0.17441,-0.0505 0.25735,-0.0517 z m 0.8506,0.50488 c 0.21828,0 0.57547,0.11524 0.79375,0.25631 0.352766,0.22798 0.352766,0.25684 0,0.25684 -0.21828,0 -0.57547,-0.11578 -0.79375,-0.25684 -0.35278,-0.22798 -0.35278,-0.25631 0,-0.25631 z m -0.79375,0.27182 c 0.0639,0 0.12771,0.0244 0.17621,0.0729 0.097,0.097 0.0178,0.17622 -0.17621,0.17622 -0.19403,0 -0.27323,-0.0792 -0.17622,-0.17622 0.0485,-0.0485 0.11227,-0.0729 0.17622,-0.0729 z m 0.79375,0.51366 c 0.48261,0 0.75711,0.1098 0.66145,0.26458 -0.0899,0.14552 -0.38759,0.26459 -0.66145,0.26459 -0.27387,0 -0.57152,-0.11907 -0.66146,-0.26459 -0.0957,-0.15478 0.17885,-0.26458 0.66146,-0.26458 z m 32.411456,0.79375 c 0.0728,0 0.13229,0.0595 0.13229,0.13229 0,0.0728 -0.0595,0.13229 -0.13229,0.13229 -0.0728,0 -0.13229,-0.0595 -0.13229,-0.13229 0,-0.0728 0.0595,-0.13229 0.13229,-0.13229 z m -0.52917,0.26458 c 0.0728,0 0.13229,0.0595 0.13229,0.1323 0,0.0728 -0.0595,0.13229 -0.13229,0.13229 -0.0728,0 -0.13229,-0.0595 -0.13229,-0.13229 0,-0.0728 0.0595,-0.1323 0.13229,-0.1323 z m -0.52917,0.26459 c 0.0728,0 0.1323,0.0595 0.1323,0.13229 0,0.0728 -0.0595,0.13229 -0.1323,0.13229 -0.0728,0 -0.13229,-0.0595 -0.13229,-0.13229 0,-0.0728 0.0595,-0.13229 0.13229,-0.13229 z m -8.70592,0.032 c 0.21767,-0.004 0.4308,0.0139 0.57309,0.0512 0.25297,0.0663 -0.0163,0.11823 -0.59842,0.11523 -0.58208,-0.003 -0.78904,-0.0571 -0.45992,-0.1204 0.14399,-0.0278 0.31596,-0.0433 0.48525,-0.046 z m 8.17676,0.23254 c 0.0728,0 0.13229,0.0595 0.13229,0.13229 0,0.0728 -0.0595,0.13229 -0.13229,0.13229 -0.0728,0 -0.13229,-0.0595 -0.13229,-0.13229 0,-0.0728 0.0595,-0.13229 0.13229,-0.13229 z m -6.74688,0.0155 c 0.0639,0 0.12772,0.0244 0.17622,0.0729 0.097,0.097 0.0178,0.17621 -0.17622,0.17621 -0.19399,0 -0.27321,-0.0792 -0.17621,-0.17621 0.0485,-0.0485 0.11227,-0.0729 0.17621,-0.0729 z m 0.92604,0.24908 c 0.0728,0 0.1323,0.0595 0.1323,0.1323 0,0.0728 -0.0595,0.13229 -0.1323,0.13229 -0.0728,0 -0.13229,-0.0595 -0.13229,-0.13229 0,-0.0728 0.0595,-0.1323 0.13229,-0.1323 z m 5.29167,0 c 0.0728,0 0.13229,0.0595 0.13229,0.1323 0,0.0728 -0.0595,0.13229 -0.13229,0.13229 -0.0728,0 -0.13229,-0.0595 -0.13229,-0.13229 0,-0.0728 0.0595,-0.1323 0.13229,-0.1323 z m -29.493286,0.26975 c 0.19962,0.002 0.597716,0.13284 1.050576,0.39171 v 5.2e-4 c 0.5847,0.33429 0.60005,0.37845 0.13229,0.3793 -0.29104,5.3e-4 -0.76035,-0.17392 -1.042826,-0.38757 -0.3409,-0.25805 -0.33967,-0.38575 -0.14004,-0.38396 z m -1.12293,0.29198 c 0.10664,-0.002 0.20014,0.0229 0.2496,0.0723 0.0879,0.0879 -0.0684,0.15051 -0.34727,0.13901 -0.30822,-0.0127 -0.37075,-0.0752 -0.15968,-0.15968 0.0836,-0.0334 0.17441,-0.0505 0.25735,-0.0517 z m 0.97462,0.51469 c 0.36627,0.004 0.717696,0.11007 0.802006,0.2465 0.19522,0.31587 -0.323256,0.31587 -1.058326,0 -0.4725,-0.20308 -0.45281,-0.22938 0.18294,-0.24598 0.0245,-6.4e-4 0.049,-8e-4 0.0734,-5.2e-4 z m 12.515506,0.2465 c 0.14777,0 0.33685,0.1786 0.42065,0.39688 0.0838,0.21827 0.11135,0.39687 0.061,0.39687 -0.0504,0 -0.24,-0.1786 -0.42116,-0.39687 -0.18985,-0.22876 -0.21529,-0.39688 -0.0605,-0.39688 z m 0.86403,0.79117 c 0.0331,0.002 0.15761,0.0906 0.38706,0.2589 0.29104,0.21348 0.57864,0.42182 0.63924,0.46302 0.0606,0.0412 -0.0139,0.0744 -0.16588,0.0744 -0.15196,0 -0.43952,-0.20836 -0.63924,-0.46302 -0.17845,-0.22755 -0.25865,-0.33566 -0.22118,-0.33331 z m -8.60878,0.003 c 0.0728,0 0.1323,0.0595 0.1323,0.13229 0,0.0728 -0.0595,0.13229 -0.1323,0.13229 -0.0728,0 -0.13229,-0.0595 -0.13229,-0.13229 0,-0.0728 0.0595,-0.13229 0.13229,-0.13229 z m 22.87045,0.59376 h 5.1e-4 c 0.061,-0.005 0.026,0.1155 -0.0863,0.34881 -0.21448,0.44554 -1.09973,1.54687 -1.96732,2.4474 -1.90461,1.97693 -2.16245,2.04933 -1.20044,0.33796 0.76876,-1.36757 2.46306,-3.51444 1.96164,-2.48563 -0.15563,0.31932 -0.40071,0.65307 -0.54467,0.74207 -0.14395,0.089 -0.38974,0.4233 -0.54622,0.74259 -0.15648,0.31932 0.3843,-0.13404 1.20147,-1.00717 0.71319,-0.76205 1.07968,-1.11794 1.18133,-1.12603 z m -6.12624,0.76171 c 0.10664,-0.002 0.20014,0.0228 0.24959,0.0724 0.0879,0.0879 -0.0684,0.15051 -0.34726,0.13901 -0.30823,-0.0127 -0.37075,-0.0752 -0.15968,-0.15968 0.0836,-0.0334 0.17441,-0.0505 0.25735,-0.0517 z m -10.92337,0.23203 c 0.0728,0 0.13229,0.0595 0.13229,0.13229 0,0.0728 -0.0595,0.13229 -0.13229,0.13229 -0.0728,0 -0.13229,-0.0595 -0.13229,-0.13229 0,-0.0728 0.0595,-0.13229 0.13229,-0.13229 z m 9.525,0 c 0.0728,0 0.13229,0.0595 0.13229,0.13229 0,0.0728 -0.0595,0.13229 -0.13229,0.13229 -0.0728,0 -0.13229,-0.0595 -0.13229,-0.13229 0,-0.0728 0.0595,-0.13229 0.13229,-0.13229 z m -8.86354,0.0155 c 0.0639,0 0.12772,0.0244 0.17622,0.0729 0.097,0.097 0.0178,0.17622 -0.17622,0.17622 -0.19399,0 -0.27322,-0.0792 -0.17622,-0.17622 0.0485,-0.0485 0.11227,-0.0729 0.17622,-0.0729 z m 1.32292,0.26458 c 0.0639,0 0.12771,0.0244 0.17621,0.0729 0.097,0.097 0.0178,0.17621 -0.17621,0.17621 -0.19398,0 -0.27322,-0.0792 -0.17622,-0.17621 0.0485,-0.0485 0.11228,-0.0729 0.17622,-0.0729 z m -3.0515,0.27957 c 0.1349,0 0.11832,0.0778 -0.12351,0.2341 -0.21828,0.14107 -0.57547,0.25036 -0.79375,0.24236 -0.26169,-0.01 -0.21662,-0.0924 0.13229,-0.24236 0.36368,-0.15628 0.65007,-0.2341 0.78497,-0.2341 z"
       inkscape:export-filename="business-logo.svg"
       inkscape:export-xdpi="30.00816"
       inkscape:export-ydpi="30.00816" /><path
       style="opacity:0.520988;fill:#000000"
       d="m 117.16811,279.23067 c 0,-0.0728 0.0595,-0.13229 0.13229,-0.13229 0.0728,0 0.13229,0.0595 0.13229,0.13229 0,0.0728 -0.0595,0.1323 -0.13229,0.1323 -0.0728,0 -0.13229,-0.0595 -0.13229,-0.1323 z"
       id="path75" /></g></svg>
